<svg xmlns="http://www.w3.org/2000/svg" viewBox="0 0 171.12 47.7" class="svg-logo">
  <defs/>
  <g clip-path="url(#a)" transform="matrix(1.33333 0 0 -1.33333 0 47.7)">
    <path fill="#0087ce" d="M1.55 4.81H3.3c.31 0 .53.05.67.15.2.15.32.4.35.78.03.4-.09.66-.36.78-.1.04-.26.06-.48.06H1.71zm-.1-1.07l-.18-2.1H0l.53 6h2.99c.54 0 .93-.03 1.16-.1.38-.14.67-.41.86-.83.14-.3.2-.65.17-1.01-.03-.31-.11-.6-.24-.87a2 2 0 00-.53-.67 1.69 1.69 0 00-.6-.33 3.1 3.1 0 00-.83-.09zM10.07 3.85c-.09-1 .18-2.2 2.03-2.2h1.7l.07.9h-1.54c-.87 0-1.02.16-1 .82h2.62l.08.93H11.4c.1.73.47.83 1.15.83h1.54l.08.91h-1.7c-1.7 0-2.31-1.08-2.4-2.2M23.8 5.13h2.05l.08.91h-2.49c-1.03 0-1.6-.46-1.67-1.4-.1-1.14.54-1.22 1.4-1.22h1.02c.42 0 .6-.14.58-.42-.03-.3-.24-.45-.66-.45h-2.44l-.08-.9h2.98c.74 0 1.26.63 1.34 1.45.05.96-.6 1.23-1.36 1.23h-1.07c-.36 0-.54.12-.51.37.03.38.3.43.83.43M14.66 3.83c-.11-1.34.57-2.19 2.13-2.19h1.56l.09.95h-1.22c-1.3 0-1.38.64-1.33 1.24.1 1.15.75 1.25 1.54 1.25h1.22l.09.96h-1.56c-2.04 0-2.44-1.3-2.52-2.21M31.48 6.13a2.43 2.43 0 01-2.54-2.28c-.08-.99.33-2.3 2.14-2.3a2.41 2.41 0 012.53 2.3c.14 1.6-.98 2.28-2.13 2.28m.92-2.3c-.1-1.08-.82-1.33-1.25-1.33-.64 0-1.07.52-1 1.33.08.87.61 1.34 1.25 1.34.6 0 1.08-.43 1-1.34M36.95 6.04H34.7l-.38-4.41h1.15l.3 3.43h1c.7 0 .75-.16.7-.79l-.23-2.64h1.18l.24 2.8c.1 1.18-.41 1.61-1.7 1.61M6.15 1.65l.38 4.4H8.5c1.11 0 1.2-.33 1.08-1.57 0-.05 0-.14-.02-.27h-1.1l.03.36c.05.64.05.64-.86.64L7.3 1.65zM21.08 7.65l-.1-1.1h-1.2l.1 1.1zM20.94 6.04l-.39-4.4h-1.2l.38 4.4zM28.41 7.65l-.1-1.1h-1.2l.1 1.1zM28.27 6.04l-.38-4.4h-1.2l.38 4.4zM96.4 6.13a2.43 2.43 0 01-2.54-2.28c-.09-.99.33-2.3 2.13-2.3 1.51 0 2.42 1.02 2.53 2.3.14 1.6-.97 2.28-2.13 2.28m.92-2.3c-.1-1.08-.82-1.33-1.25-1.33-.63 0-1.07.52-1 1.33.08.87.61 1.34 1.26 1.34.6 0 1.07-.43 1-1.34M104.1 6.06H99.6l-.38-4.42h1.15l.3 3.44h3.24c.69 0 .75-.16.7-.8l-.24-2.64h1.18l.25 2.8c.1 1.18-.42 1.62-1.71 1.62"/>
    <path fill="#0087ce" d="M103.28 5.48l-.35-3.84h-1.17l.35 3.84zM119.95 6.04h-2.25l-.38-4.41h1.15l.3 3.43h1c.7 0 .75-.16.7-.79l-.23-2.64h1.18l.24 2.8c.1 1.18-.41 1.61-1.7 1.61M93.48 6.63h-2.07c-.88 0-1.5-.45-1.67-2.18-.15-1.46.47-1.7 1.32-1.7h2.08l-.1-1.1h-2.12c-1.92 0-2.71 1.07-2.55 2.9.16 1.82.92 3.1 3.11 3.1h2.1zM109.92 3.76c-.1-1.23-.67-1.24-1.68-1.24h-.43l.22 2.5.42.01c1.02 0 1.57-.05 1.47-1.27M107.6 0l.13 1.58h1.02c1.98 0 2.34 1.37 2.4 2.16.14 1.44-.6 2.25-1.95 2.25h-2.23L106.43 0zM115 2.53h-1.45c-.4 0-.61.06-.58.46.06.43.44.46.75.46h1.37zm-.31 3.52h-2.38l-.09-.9h1.95c.82 0 1.05-.22 1-.83h-1.54c-.96 0-1.79-.2-1.89-1.37-.07-.8.41-1.3 1.26-1.3h3.12l.24 2.76c.1 1.12-.45 1.64-1.67 1.64M125.27 2.11c-.16-.99-.19-1.08-1.1-1.08h-1.83l-.06-.94h1.86c2.33 0 2.27 1.09 2.38 2.37l.32 3.57h-1.22z"/>
    <path fill="#0087ce" d="M125.84 1.65l-.43.95h-1c-.7 0-.75.16-.7.78l.24 2.65h-1.19l-.22-2.6c-.1-1.17.39-1.81 1.72-1.78zM72.73 3.85c-.08-1 .19-2.2 2.03-2.2h1.7l.08.9h-1.55c-.87 0-1.02.16-1 .82h2.62l.08.93h-2.62c.1.73.47.83 1.16.83h1.53l.08.91h-1.7c-1.69 0-2.3-1.08-2.4-2.2M70.26 6.06h-4.49l-.38-4.42h1.16l.3 3.44h3.23c.69 0 .75-.16.7-.8l-.24-2.64h1.18l.25 2.8c.1 1.18-.41 1.62-1.71 1.62"/>
    <path fill="#0087ce" d="M69.44 5.48l-.34-3.84h-1.18l.35 3.84zM54.45 1.63h2.25l.38 4.41h-1.15l-.3-3.43h-1c-.7 0-.75.16-.7.79l.23 2.64h-1.18l-.24-2.8c-.1-1.17.4-1.61 1.7-1.61M79.99 6.04h-2.25l-.38-4.41h1.15l.3 3.43h1c.69 0 .75-.16.7-.79l-.24-2.64h1.19l.24 2.8c.1 1.18-.41 1.61-1.71 1.61M59.6 7.65l-.1-1.1h-1.2l.1 1.1zM59.46 6.04l-.38-4.4h-1.2l.38 4.4zM46.73 6.63h-2.07c-.88 0-1.5-.45-1.67-2.18-.15-1.46.47-1.7 1.32-1.7h2.08l-.1-1.1h-2.12c-1.92 0-2.71 1.07-2.55 2.9.16 1.82.92 3.1 3.11 3.1h2.1z"/>
    <path fill="#0087ce" d="M42.32 4.08h4.2l.09 1.09h-4.2zM82.8 7.65h1.16l-.14-1.6h1.24L85 5.17h-1.25l-.15-1.78c-.07-.73.16-.86 1.05-.86h.11l-.07-.88h-1.06c-.88 0-1.3.51-1.23 1.37l.4 4.63M63.46 3.76c-.1-1.23-.67-1.24-1.68-1.24h-.44l.22 2.5.43.01c1.01 0 1.57-.05 1.47-1.27M61.12 0l.14 1.58h1.01c1.98 0 2.35 1.37 2.41 2.16.13 1.44-.61 2.25-1.96 2.25H60.5L59.97 0zM47.2 3.82c-.11-1.34.57-2.19 2.13-2.19h1.56l.09.94h-1.22c-1.3 0-1.38.65-1.33 1.25.1 1.14.75 1.25 1.54 1.25h1.23l.08.96h-1.56c-2.04 0-2.44-1.3-2.52-2.21"/>
    <path fill="#0087ce" d="M50.64 6.03h1.21L51.32 0h-1.2z"/>
    <path fill="#0090d7" d="M120.9 27.46c-2.16 0-3.95-1.57-4.2-4.49-.24-2.72 1.2-4.45 3.33-4.45 1.46 0 3.89.84 4.2 4.45.27 3.06-1.32 4.49-3.33 4.49m7.4-4.43c-.38-4.29-3.42-7.7-8.49-7.7-6.05 0-7.46 4.4-7.17 7.7.32 3.61 2.88 7.67 8.51 7.67 3.87 0 7.62-2.3 7.15-7.67m-21.77 7.37h5.24l-.28-3.23h-4.1c-2.66 0-4.85-.36-5.18-4.2-.18-2.01.11-4.17 4.45-4.17h4.1l-.28-3.17h-5.24c-5.24 0-7.54 2.86-7.15 7.34.26 3.03 1.6 7.43 8.44 7.43M86.2 25.89c-.07-.84.51-1.24 1.74-1.24h3.56c2.58 0 4.74-.9 4.57-4.14-.24-2.75-2-4.88-4.5-4.88h-10l.27 3.06h8.21c1.4 0 2.12.47 2.2 1.48.09.95-.54 1.43-1.94 1.43h-3.39c-2.91 0-5.08.25-4.74 4.09.27 3.14 2.15 4.7 5.62 4.7h8.35l-.27-3.05H89c-1.8 0-2.68-.17-2.79-1.45m-11.2 4.5h5.68l-.27-3.05h-5.15c-2.3 0-3.53-.33-3.89-2.8h8.8l-.27-3.1h-8.8c-.05-2.22.46-2.75 3.37-2.75h5.19l-.27-3.06h-5.69c-6.19 0-7.1 4.06-6.8 7.4.33 3.75 2.4 7.37 8.1 7.37m-12.92 0h4.17L66 27.46h-4.17l-.52-5.97c-.22-2.47.55-2.92 3.52-2.92h.4l-.26-2.94H61.4c-2.94 0-4.36 1.74-4.1 4.6l1.35 15.55h3.9zm-14.8-3.23h-2.41l-.73-8.37c.08 0 .47-.03 1.2-.03 3.43-.14 5.26.22 5.77 3.22.77 4.26-.86 5.18-3.83 5.18m8.03-4.53c-.4-3-2.15-7-7.84-7H40l1.77 20.14h3.86l-.47-5.38h3.4c4.61 0 7.25-2.16 6.76-7.76m-22.13-.98h-4.6c-1.03 0-2.3-.09-2.48-1.55-.12-1.31.59-1.54 1.93-1.54h4.88zm4.26 3.22l-.81-9.25H26.19c-2.83 0-4.45 1.68-4.21 4.37.34 3.92 3.11 4.6 6.3 4.6h5.16c.18 2.04-.57 2.74-3.31 2.74H23.6l.27 3.06h7.98c4.1 0 5.93-1.77 5.6-5.52M15.1 21.26L8.17 35.78H2.79L1.03 15.63h4.34l1.16 15.21 7.3-15.2h4.88l1.76 20.14H16.2z"/>
  </g>
</svg>
